<?xml version="1.0" standalone="no"?>
<!DOCTYPE svg PUBLIC "-//W3C//DTD SVG 20010904//EN"
 "http://www.w3.org/TR/2001/REC-SVG-20010904/DTD/svg10.dtd">
<svg version="1.0" xmlns="http://www.w3.org/2000/svg"
 width="500.000000pt" height="500.000000pt" viewBox="0 0 500.000000 500.000000"
 preserveAspectRatio="xMidYMid meet">

<g transform="translate(0.000000,500.000000) scale(0.100000,-0.100000)"
fill="#000000" stroke="none">
<path d="M0 2500 l0 -2500 2500 0 2500 0 0 2500 0 2500 -2500 0 -2500 0 0
-2500z m2825 784 c61 -7 124 -18 140 -24 l30 -10 -35 5 c-169 22 -252 28 -425
29 -264 1 -409 -22 -540 -83 -104 -48 -161 -112 -180 -201 -4 -19 -13 -38 -19
-42 -15 -10 -56 -10 -56 0 0 23 119 265 137 277 30 21 323 61 508 69 122 5
318 -3 440 -20z m75 -55 c90 -11 172 -25 181 -30 27 -14 87 -101 120 -174 17
-37 28 -69 26 -71 -2 -3 -89 0 -193 6 -613 33 -1170 -18 -1422 -130 -49 -22
-60 -25 -42 -10 34 27 181 85 276 109 202 51 270 56 749 56 475 0 513 3 535
46 8 14 7 27 -4 48 -54 104 -207 144 -611 158 -185 7 -206 9 -135 14 128 9
335 0 520 -22z m-1212 -192 c6 -7 8 -26 3 -47 l-7 -35 -11 32 c-14 37 -43 49
-80 31 -34 -16 -32 -32 4 -36 15 -2 38 -12 51 -23 14 -10 36 -19 50 -19 20 0
23 -3 14 -12 -9 -9 -18 -9 -37 0 -14 7 -44 12 -66 12 -53 0 -79 15 -79 45 0
36 44 65 100 65 26 0 52 -6 58 -13z m1729 -19 c26 -25 30 -63 7 -72 -9 -3 -31
-6 -50 -6 -19 0 -51 -7 -70 -15 -36 -15 -54 -13 -54 6 0 5 13 9 29 9 16 0 34
7 41 15 7 8 26 15 42 15 32 0 50 27 27 41 -31 19 -69 10 -88 -21 l-18 -31 -7
32 c-3 17 -3 35 0 40 3 5 30 9 61 9 44 0 62 -5 80 -22z m-409 -99 c83 -7 150
-14 148 -16 -2 -2 -46 -8 -97 -13 -139 -14 -225 -30 -246 -45 -17 -13 -16 -14
12 -25 73 -28 137 -34 247 -22 123 14 217 41 270 77 20 14 44 25 53 25 32 0
116 -121 114 -164 0 -13 -6 -7 -15 19 -19 54 -56 85 -101 85 -19 0 -96 -21
-171 -46 -156 -52 -276 -67 -373 -44 -71 16 -181 68 -176 83 6 18 82 36 232
55 l140 17 -95 6 c-264 18 -616 5 -874 -32 -76 -11 -140 -18 -142 -16 -10 10
231 51 411 71 70 7 505 -2 663 -15z m-1091 -65 c-3 -3 -12 -4 -19 -1 -8 3 -5
6 6 6 11 1 17 -2 13 -5z m320 -157 c65 -34 73 -105 19 -165 -32 -36 -34 -39
-16 -49 10 -7 24 -28 30 -48 19 -57 -8 -117 -68 -153 -45 -26 -54 -27 -205
-30 -150 -4 -159 -3 -154 15 7 21 97 442 97 450 0 3 60 3 133 1 99 -3 140 -8
164 -21z m403 14 c51 -10 100 -57 100 -96 0 -45 -31 -104 -66 -126 -19 -11
-34 -24 -34 -27 0 -7 20 -62 59 -159 l21 -53 -84 0 -83 0 -32 101 c-18 56 -34
99 -36 97 -3 -2 -11 -38 -20 -79 -8 -41 -17 -84 -20 -96 -5 -22 -11 -23 -85
-23 -44 0 -80 2 -80 3 0 8 91 433 96 450 5 15 19 17 112 17 59 -1 127 -5 152
-9z m485 -5 c38 -16 41 -28 24 -88 l-10 -38 -58 0 -57 0 -10 42 c-11 52 -33
60 -69 23 -50 -49 -28 -76 89 -112 77 -23 101 -54 101 -127 -1 -66 -28 -106
-92 -137 -63 -31 -204 -33 -275 -6 -52 20 -50 14 -28 97 6 23 11 25 73 28 l67
3 0 -34 c0 -19 7 -40 15 -47 38 -32 101 32 76 78 -9 17 -103 62 -130 62 -14 0
-58 55 -64 81 -15 64 40 144 118 173 53 19 186 20 230 2z m-1521 -692 c10 -25
16 -48 12 -51 -3 -4 -6 -1 -6 5 0 7 -13 12 -30 12 -16 0 -30 -5 -30 -12 0 -6
-3 -9 -6 -5 -7 7 25 97 35 97 3 0 14 -21 25 -46z m164 -36 c20 -20 41 0 45 44
4 40 4 39 3 -7 -1 -44 -4 -50 -24 -53 -35 -5 -52 15 -51 62 l1 41 8 -38 c4
-21 12 -43 18 -49z m240 75 c-14 -3 -18 -15 -18 -49 0 -24 -4 -44 -10 -44 -5
0 -10 20 -10 44 0 34 -4 46 -17 49 -10 3 2 5 27 5 25 0 37 -2 28 -5z m219 -23
c27 -55 -49 -97 -83 -46 -15 24 -15 28 0 52 22 33 65 30 83 -6z m189 19 c4 -7
0 -9 -14 -5 -34 11 -35 -12 -2 -29 20 -10 30 -22 28 -33 -4 -20 -46 -28 -62
-12 -8 9 -4 10 15 5 39 -10 45 11 9 30 -29 15 -38 34 -23 48 10 11 41 8 49 -4z
m209 2 c3 -6 -6 -9 -21 -8 -33 3 -54 -25 -38 -50 7 -11 22 -17 38 -16 15 1 24
-2 21 -8 -9 -13 -49 -11 -63 3 -7 7 -12 24 -12 38 0 14 5 31 12 38 14 14 54
16 63 3z m145 -17 c0 -8 10 -14 25 -14 18 0 25 5 25 20 0 11 5 20 10 20 6 0
10 -22 10 -50 0 -27 -4 -50 -10 -50 -5 0 -10 11 -10 25 0 20 -5 25 -25 25 -20
0 -25 -5 -25 -25 0 -14 -4 -25 -10 -25 -5 0 -10 23 -10 51 0 31 4 48 10 44 6
-3 10 -13 10 -21z m274 10 c9 -8 16 -24 16 -34 0 -40 -60 -66 -88 -38 -28 28
-2 88 38 88 10 0 26 -7 34 -16z m220 0 c9 -8 16 -24 16 -34 0 -40 -60 -66 -88
-38 -28 28 -2 88 38 88 10 0 26 -7 34 -16z m156 -34 c0 -35 3 -39 28 -43 22
-3 20 -4 -10 -6 l-38 -1 0 51 c0 31 4 48 10 44 6 -3 10 -24 10 -45z m-1072
-323 c2 -11 -6 -29 -18 -42 l-22 -23 24 -5 c18 -3 16 -5 -9 -6 -40 -1 -41 5
-7 40 29 30 24 54 -8 43 -14 -4 -18 -3 -13 6 10 17 49 8 53 -13z m138 -2 c15
-23 15 -27 0 -50 -19 -29 -51 -32 -78 -8 -22 20 -23 32 -2 61 21 30 59 29 80
-3z m112 2 c2 -11 -6 -29 -18 -42 l-22 -23 24 -5 c18 -3 16 -5 -9 -6 -40 -1
-41 5 -7 40 29 30 24 54 -8 43 -14 -4 -18 -3 -13 6 10 17 49 8 53 -13z m101
-71 c-6 -6 -9 -5 -9 2 0 7 -9 12 -20 12 -25 0 -25 5 2 49 l23 36 6 -45 c4 -25
3 -49 -2 -54z m-696 27 c-106 -2 -280 -2 -385 0 -106 1 -20 2 192 2 212 0 298
-1 193 -2z m1380 0 c-106 -2 -280 -2 -385 0 -106 1 -20 2 192 2 212 0 298 -1
193 -2z"/>
<path d="M2080 2608 c-6 -29 -14 -61 -17 -70 -7 -29 42 -23 66 8 35 44 26 114
-14 114 -20 0 -25 -8 -35 -52z"/>
<path d="M2045 2458 c-2 -7 -10 -46 -18 -86 l-15 -73 31 3 c42 4 70 45 71 103
1 31 -4 49 -14 55 -21 14 -50 12 -55 -2z"/>
<path d="M2525 2648 c-2 -7 -10 -43 -18 -80 -14 -64 -14 -68 3 -68 51 0 80 42
80 115 0 43 -1 45 -30 45 -17 0 -32 -6 -35 -12z"/>
<path d="M1570 2010 c0 -11 5 -20 10 -20 6 0 10 9 10 20 0 11 -4 20 -10 20 -5
0 -10 -9 -10 -20z"/>
<path d="M2160 2035 c-26 -31 13 -82 44 -56 19 16 21 42 4 59 -16 16 -33 15
-48 -3z"/>
<path d="M2988 2039 c-33 -19 -15 -69 24 -69 15 0 38 27 38 44 0 7 -31 36 -38
36 -4 0 -15 -5 -24 -11z"/>
<path d="M3208 2039 c-33 -19 -15 -69 24 -69 15 0 38 27 38 44 0 7 -31 36 -38
36 -4 0 -15 -5 -24 -11z"/>
<path d="M2420 1685 c-26 -31 13 -82 44 -56 19 16 21 42 4 59 -16 16 -33 15
-48 -3z"/>
<path d="M2676 1661 c-4 -7 -5 -15 -2 -18 9 -9 19 4 14 18 -4 11 -6 11 -12 0z"/>
</g>
</svg>
